<svg xmlns="http://www.w3.org/2000/svg" width="285" height="805" viewBox="0 0 285 805" fill="none">
<path d="M41.8543 12.6331C69.7591 4.63314 99.5686 0.333138 128.045 8.23314C149.378 14.1331 169.759 26.6331 182.14 46.2331C192.616 62.7331 196.997 83.0331 194.14 102.633C190.902 125.433 178.616 144.233 163.569 160.433C131.378 195.033 89.2829 216.833 55.2829 249.233C19.2829 283.533 -9.57428 337.233 6.6162 389.433C21.0924 436.133 66.9019 462.633 105.283 484.833C137.473 503.333 170.521 520.733 201.092 542.233C229.569 562.333 260.235 588.633 269.283 625.133C280.426 670.533 250.616 713.433 216.521 737.833C173.283 768.733 119.569 783.433 68.0448 788.133C41.4733 790.533 14.6162 790.733 -11.9552 789.033C-38.7171 787.333 -65.2886 785.133 -91.7647 780.133C-104.146 777.733 -116.431 774.933 -128.717 771.933C-135.289 770.333 -138.05 781.133 -131.479 782.533C-104.812 788.033 -77.86 792.933 -51.0028 797.233C-23.9552 801.533 3.09239 803.933 30.521 804.033C85.0924 804.233 140.426 793.833 190.14 769.533C234.331 747.933 276.997 710.933 283.569 657.033C288.521 617.033 266.711 582.533 239.283 557.133C210.521 530.333 176.235 511.133 142.616 492.033C124.616 481.833 106.426 471.633 88.8067 460.733C68.7114 448.333 48.9019 434.333 33.8543 415.433C17.3781 394.733 10.9972 368.533 15.3781 342.033C19.8543 315.033 33.1876 291.033 50.8067 271.133C82.9972 234.733 126.521 212.633 161.378 179.533C178.235 163.533 193.569 144.433 200.997 121.533C207.378 101.733 207.283 79.9331 199.759 60.5331C192.045 40.6331 177.664 24.4331 159.854 14.1331C136.235 0.633138 108.045 -2.06686 81.7591 1.33314C68.0448 3.13314 54.6162 6.63314 41.5686 11.4331C40.7115 11.6331 41.0924 12.9331 41.8543 12.6331Z" fill="#4C31AF"/>
</svg>
